<svg id="logo" xmlns="http://www.w3.org/2000/svg" xmlns:xlink="http://www.w3.org/1999/xlink" width="80.703" height="81.575" viewBox="0 0 80.703 81.575">
  <defs>
    <clipPath id="clip-path">
      <rect id="Rectangle_4" data-name="Rectangle 4" width="80.703" height="81.575" fill="none"/>
    </clipPath>
  </defs>
  <g id="logo-2" data-name="logo">
    <g id="Groupe_1" data-name="Groupe 1" clip-path="url(#clip-path)">
      <path id="Tracé_1" data-name="Tracé 1" d="M52.386,49.657a.156.156,0,0,0-.156.157v9.841a.156.156,0,0,0,.156.156H54.1a.156.156,0,0,0,.156-.156V56.284a.156.156,0,0,1,.155-.157h1.54a3.236,3.236,0,0,0,0-6.47ZM57.029,52.9a1.311,1.311,0,0,1-1.318,1.446H54.336a.078.078,0,0,1-.077-.078v-2.71a.1.1,0,0,1,.1-.1h1.349A1.3,1.3,0,0,1,57.029,52.9" transform="translate(-9.745 -9.265)" fill="#e22f24"/>
      <path id="Tracé_2" data-name="Tracé 2" d="M72.04,54.7c0-3.029-1.589-5.252-4.24-5.252s-4.239,2.223-4.239,5.252,1.575,5.252,4.239,5.252,4.24-2.223,4.24-5.252m-6.4,0c0-1.964.757-3.441,2.165-3.441,1.378,0,2.151,1.477,2.151,3.441s-.773,3.441-2.151,3.441c-1.407,0-2.165-1.492-2.165-3.441" transform="translate(-11.859 -9.226)" fill="#e22f24"/>
      <path id="Tracé_3" data-name="Tracé 3" d="M81.263,59.994A3.423,3.423,0,0,0,85,56.295V49.865a.208.208,0,0,0-.207-.208H83.165a.208.208,0,0,0-.207.208V56.31c0,1.218-.621,1.888-1.7,1.888s-1.681-.67-1.681-1.888V49.865a.208.208,0,0,0-.207-.208h-1.63a.207.207,0,0,0-.207.208v6.429a3.419,3.419,0,0,0,3.724,3.7" transform="translate(-14.467 -9.265)" fill="#e22f24"/>
      <path id="Tracé_4" data-name="Tracé 4" d="M92.8,59.578v-3.2a.233.233,0,0,1,.232-.233h.72a.232.232,0,0,1,.214.142L95.4,59.669a.23.23,0,0,0,.213.142h1.739a.233.233,0,0,0,.21-.332L95.96,56a.231.231,0,0,1,.115-.309,2.751,2.751,0,0,0,1.546-2.378,3.364,3.364,0,0,0-3.364-3.658H91a.233.233,0,0,0-.232.233v9.688a.233.233,0,0,0,.232.233h1.565a.233.233,0,0,0,.232-.233m0-8.051a.074.074,0,0,1,.073-.074h1.38a1.453,1.453,0,0,1,0,2.893H92.917a.12.12,0,0,1-.12-.12Z" transform="translate(-16.935 -9.265)" fill="#e22f24"/>
      <path id="Tracé_5" data-name="Tracé 5" d="M0,95.352a.383.383,0,0,1,.39-.412.383.383,0,0,1,.386.412v2.488a.028.028,0,0,0,.032.032H2.087a.349.349,0,1,1,0,.692H.39A.369.369,0,0,1,0,98.173Z" transform="translate(0 -17.713)" fill="#005ca9"/>
      <path id="Tracé_6" data-name="Tracé 6" d="M3.7,98.125a1.857,1.857,0,0,1-.085-.608A1.916,1.916,0,0,1,3.7,96.9a1.076,1.076,0,0,1,1.1-.724,1.062,1.062,0,0,1,1.1.718,1.84,1.84,0,0,1,.085.6.227.227,0,0,1-.242.243H4.388a.028.028,0,0,0-.032.032.447.447,0,0,0,.027.148.5.5,0,0,0,.528.333,1.031,1.031,0,0,0,.481-.132.522.522,0,0,1,.254-.08.265.265,0,0,1,.269.275.308.308,0,0,1-.147.264,1.538,1.538,0,0,1-.925.275,1.09,1.09,0,0,1-1.141-.73m1.527-.877a.028.028,0,0,0,.032-.032.623.623,0,0,0-.026-.19.417.417,0,0,0-.429-.28.409.409,0,0,0-.422.28.6.6,0,0,0-.027.19.028.028,0,0,0,.032.032Z" transform="translate(-0.675 -17.945)" fill="#005ca9"/>
      <path id="Tracé_7" data-name="Tracé 7" d="M7.434,98.612a.329.329,0,0,1-.18-.3.3.3,0,0,1,.307-.3.432.432,0,0,1,.216.068,1.223,1.223,0,0,0,.629.185c.27,0,.4-.1.4-.238,0-.121-.068-.185-.369-.216l-.28-.032c-.556-.063-.835-.338-.835-.782,0-.5.386-.824,1.057-.824a1.725,1.725,0,0,1,.777.168.326.326,0,0,1,.216.29.28.28,0,0,1-.29.291.5.5,0,0,1-.211-.064,1.225,1.225,0,0,0-.517-.111c-.228,0-.322.08-.322.2s.063.18.354.211l.28.032c.6.068.851.348.851.776,0,.523-.417.878-1.141.878a1.777,1.777,0,0,1-.935-.243" transform="translate(-1.353 -17.945)" fill="#005ca9"/>
      <path id="Tracé_8" data-name="Tracé 8" d="M12.664,95.352a.389.389,0,1,1,.777,0v1.02a.028.028,0,0,0,.032.032h1.173a.028.028,0,0,0,.032-.032v-1.02a.389.389,0,1,1,.777,0v2.832a.389.389,0,1,1-.777,0V97.127a.028.028,0,0,0-.032-.031H13.473a.028.028,0,0,0-.032.031v1.057a.383.383,0,0,1-.391.412.376.376,0,0,1-.386-.412Z" transform="translate(-2.363 -17.713)" fill="#005ca9"/>
      <path id="Tracé_9" data-name="Tracé 9" d="M17.912,98.6c-.586,0-.787-.29-.787-.813V95.331a.371.371,0,1,1,.74,0v2.388c0,.147.052.211.169.232a.309.309,0,0,1,.3.323c0,.18-.116.322-.386.322Z" transform="translate(-3.195 -17.713)" fill="#005ca9"/>
      <path id="Tracé_10" data-name="Tracé 10" d="M22.4,98.437V97.275c0-.28-.137-.465-.4-.465s-.4.185-.4.465v1.162a.37.37,0,1,1-.739,0V97.275c0-.28-.137-.465-.4-.465s-.4.185-.4.465v1.162a.371.371,0,1,1-.74,0V96.6a.359.359,0,0,1,.37-.391.347.347,0,0,1,.354.269h.006a.822.822,0,0,1,.676-.3.787.787,0,0,1,.693.334h0a1.016,1.016,0,0,1,.8-.334.856.856,0,0,1,.909.952v1.3a.371.371,0,1,1-.74,0" transform="translate(-3.606 -17.945)" fill="#005ca9"/>
      <path id="Tracé_11" data-name="Tracé 11" d="M25.058,98.652a.33.33,0,0,1,.317-.243.322.322,0,0,1,.338.328.354.354,0,0,1-.02.121l-.275.819a.346.346,0,0,1-.317.259.3.3,0,0,1-.312-.327.443.443,0,0,1,.021-.137Z" transform="translate(-4.625 -18.36)" fill="#005ca9"/>
      <path id="Tracé_12" data-name="Tracé 12" d="M29.264,98.6c-.586,0-.787-.29-.787-.813V95.331a.37.37,0,1,1,.739,0v2.388c0,.147.053.211.169.232a.309.309,0,0,1,.3.323c0,.18-.116.322-.386.322Z" transform="translate(-5.313 -17.713)" fill="#005ca9"/>
      <path id="Tracé_13" data-name="Tracé 13" d="M30.7,96.135a.306.306,0,0,1-.322-.317.493.493,0,0,1,.021-.127l.159-.507a.315.315,0,0,1,.306-.243.306.306,0,0,1,.322.317.531.531,0,0,1-.02.127l-.159.507a.315.315,0,0,1-.307.243" transform="translate(-5.668 -17.713)" fill="#005ca9"/>
      <path id="Tracé_14" data-name="Tracé 14" d="M33.742,98.206V97.044c0-.28-.137-.465-.4-.465s-.4.185-.4.465v1.162a.371.371,0,1,1-.74,0V95.331a.371.371,0,1,1,.74,0v.893h0a.833.833,0,0,1,.66-.275.85.85,0,0,1,.873.952v1.3a.371.371,0,1,1-.74,0" transform="translate(-6.009 -17.713)" fill="#005ca9"/>
      <path id="Tracé_15" data-name="Tracé 15" d="M38.309,98.486a.352.352,0,0,1-.369.343.358.358,0,0,1-.3-.142l-.063-.09h0a.94.94,0,0,1-.724.259c-.655,0-.972-.3-.972-.782,0-.565.422-.824,1.057-.824h.46a.028.028,0,0,0,.032-.032v-.027c0-.238-.169-.381-.523-.381a1.235,1.235,0,0,0-.412.074.569.569,0,0,1-.174.037.28.28,0,0,1-.3-.3.321.321,0,0,1,.19-.3,1.775,1.775,0,0,1,.782-.148c.772,0,1.141.39,1.141,1.03v.7a.431.431,0,0,0,.048.244l.069.116a.421.421,0,0,1,.063.217m-.887-.539v-.174a.028.028,0,0,0-.032-.032h-.36c-.312,0-.454.1-.454.29,0,.18.126.269.37.269.312,0,.475-.116.475-.354" transform="translate(-6.693 -17.945)" fill="#005ca9"/>
      <path id="Tracé_16" data-name="Tracé 16" d="M40.384,98.328h-.006a.35.35,0,0,1-.354.269.358.358,0,0,1-.37-.39V95.332a.371.371,0,1,1,.74,0v.892h0a.758.758,0,0,1,.65-.274.911.911,0,0,1,.887.65,2.681,2.681,0,0,1,0,1.374.912.912,0,0,1-.887.65.776.776,0,0,1-.665-.3m.845-.624a1.869,1.869,0,0,0,0-.835.39.39,0,0,0-.4-.3.384.384,0,0,0-.391.3,1.869,1.869,0,0,0,0,.835.384.384,0,0,0,.391.3.39.39,0,0,0,.4-.3" transform="translate(-7.398 -17.713)" fill="#005ca9"/>
      <path id="Tracé_17" data-name="Tracé 17" d="M43.388,95.325a.417.417,0,1,1,.417.417.415.415,0,0,1-.417-.417m.047,2.875V96.362a.371.371,0,1,1,.74,0V98.2a.371.371,0,1,1-.74,0" transform="translate(-8.095 -17.707)" fill="#005ca9"/>
      <path id="Tracé_18" data-name="Tracé 18" d="M46.191,98.657c-.6,0-.819-.275-.819-.856V96.649c0-.021-.015-.032-.037-.032h-.021a.276.276,0,1,1,0-.55h.021c.021,0,.037-.01.037-.031v-.381a.368.368,0,1,1,.735,0v.381c0,.021.011.031.032.031h.2a.276.276,0,1,1,0,.55h-.2a.028.028,0,0,0-.032.032V97.78c0,.153.058.216.2.232a.324.324,0,0,1,.327.328c0,.18-.127.317-.407.317Z" transform="translate(-8.399 -17.774)" fill="#005ca9"/>
      <path id="Tracé_19" data-name="Tracé 19" d="M50.051,98.486a.352.352,0,0,1-.369.343.356.356,0,0,1-.3-.142l-.063-.09h0a.94.94,0,0,1-.724.259c-.656,0-.972-.3-.972-.782,0-.565.422-.824,1.057-.824h.46a.028.028,0,0,0,.032-.032v-.027c0-.238-.169-.381-.523-.381a1.235,1.235,0,0,0-.412.074.569.569,0,0,1-.174.037.281.281,0,0,1-.3-.3.321.321,0,0,1,.19-.3,1.776,1.776,0,0,1,.782-.148c.772,0,1.141.39,1.141,1.03v.7a.431.431,0,0,0,.048.244l.068.116a.414.414,0,0,1,.063.217m-.887-.539v-.174a.028.028,0,0,0-.032-.032h-.36c-.312,0-.454.1-.454.29,0,.18.126.269.37.269.312,0,.475-.116.475-.354" transform="translate(-8.884 -17.945)" fill="#005ca9"/>
      <path id="Tracé_20" data-name="Tracé 20" d="M52.2,98.657c-.6,0-.819-.275-.819-.856V96.649c0-.021-.015-.032-.037-.032h-.021a.276.276,0,1,1,0-.55h.021c.021,0,.037-.01.037-.031v-.381a.368.368,0,1,1,.735,0v.381c0,.021.011.031.032.031h.2a.276.276,0,1,1,0,.55h-.2a.028.028,0,0,0-.032.032V97.78c0,.153.058.216.2.232a.324.324,0,0,1,.327.328c0,.18-.127.317-.407.317Z" transform="translate(-9.52 -17.774)" fill="#005ca9"/>
      <path id="Tracé_21" data-name="Tracé 21" d="M55.435,98.125a1.857,1.857,0,0,1-.085-.608,1.915,1.915,0,0,1,.079-.613,1.076,1.076,0,0,1,1.1-.724,1.062,1.062,0,0,1,1.1.718,1.84,1.84,0,0,1,.085.6.227.227,0,0,1-.242.243H56.121a.028.028,0,0,0-.032.032.447.447,0,0,0,.027.148.5.5,0,0,0,.528.333,1.031,1.031,0,0,0,.481-.132.522.522,0,0,1,.254-.08.265.265,0,0,1,.269.275.308.308,0,0,1-.147.264,1.538,1.538,0,0,1-.925.275,1.091,1.091,0,0,1-1.141-.73m1.527-.877a.028.028,0,0,0,.032-.032.623.623,0,0,0-.026-.19.417.417,0,0,0-.429-.28.409.409,0,0,0-.422.28.6.6,0,0,0-.027.19.028.028,0,0,0,.032.032Z" transform="translate(-10.327 -17.945)" fill="#005ca9"/>
      <path id="Tracé_22" data-name="Tracé 22" d="M60.68,98.437V97.275c0-.28-.137-.465-.4-.465s-.4.185-.4.465v1.162a.37.37,0,1,1-.739,0V96.6a.358.358,0,0,1,.37-.391.348.348,0,0,1,.354.269h0a.822.822,0,0,1,.676-.3.85.85,0,0,1,.873.952v1.3a.371.371,0,1,1-.74,0" transform="translate(-11.034 -17.945)" fill="#005ca9"/>
      <path id="Tracé_23" data-name="Tracé 23" d="M64.709,95.405a.418.418,0,0,1,.428-.464c.233,0,.36.126.481.4l.766,1.733H66.4l.75-1.733c.116-.275.243-.4.476-.4a.414.414,0,0,1,.422.464v2.816a.354.354,0,1,1-.708,0V96.488h-.027l-.554,1.29c-.111.253-.2.327-.381.327s-.269-.074-.381-.327l-.56-1.29h-.027v1.733a.354.354,0,1,1-.708,0Z" transform="translate(-12.073 -17.713)" fill="#005ca9"/>
      <path id="Tracé_24" data-name="Tracé 24" d="M69.794,98.12a2.186,2.186,0,0,1,0-1.2,1.205,1.205,0,0,1,2.219,0,2.187,2.187,0,0,1,0,1.2,1.205,1.205,0,0,1-2.219,0m1.506-.174a1.964,1.964,0,0,0,0-.856.418.418,0,0,0-.792,0,1.931,1.931,0,0,0,0,.856.418.418,0,0,0,.792,0" transform="translate(-13.006 -17.945)" fill="#005ca9"/>
      <path id="Tracé_25" data-name="Tracé 25" d="M75.026,98.565h-.006a.821.821,0,0,1-.676.3.838.838,0,0,1-.856-.951V96.6a.362.362,0,0,1,.375-.39.357.357,0,0,1,.364.39v1.162c0,.281.127.465.391.465s.39-.185.39-.465V96.6a.371.371,0,1,1,.74,0v1.839a.358.358,0,0,1-.37.39.348.348,0,0,1-.354-.269" transform="translate(-13.711 -17.951)" fill="#005ca9"/>
      <path id="Tracé_26" data-name="Tracé 26" d="M77.778,98.38l-.661-1.643a.438.438,0,0,1-.037-.174.361.361,0,0,1,.708-.09l.491,1.337h.011l.47-1.337a.355.355,0,0,1,.7.09.424.424,0,0,1-.037.174l-.661,1.643c-.137.338-.248.455-.491.455s-.354-.116-.491-.455" transform="translate(-14.381 -17.951)" fill="#005ca9"/>
      <path id="Tracé_27" data-name="Tracé 27" d="M80.666,98.125a1.857,1.857,0,0,1-.085-.608,1.892,1.892,0,0,1,.079-.613,1.076,1.076,0,0,1,1.1-.724,1.062,1.062,0,0,1,1.1.718,1.84,1.84,0,0,1,.085.6.227.227,0,0,1-.242.243H81.352a.028.028,0,0,0-.032.032.446.446,0,0,0,.027.148.5.5,0,0,0,.528.333,1.034,1.034,0,0,0,.481-.132.522.522,0,0,1,.254-.08.265.265,0,0,1,.269.275.307.307,0,0,1-.147.264,1.538,1.538,0,0,1-.925.275,1.09,1.09,0,0,1-1.141-.73m1.527-.877a.028.028,0,0,0,.032-.032.623.623,0,0,0-.026-.19.417.417,0,0,0-.429-.28.409.409,0,0,0-.422.28.6.6,0,0,0-.027.19.028.028,0,0,0,.032.032Z" transform="translate(-15.034 -17.945)" fill="#005ca9"/>
      <path id="Tracé_28" data-name="Tracé 28" d="M87.449,98.437V97.275c0-.28-.137-.465-.4-.465s-.4.185-.4.465v1.162a.37.37,0,1,1-.739,0V97.275c0-.28-.137-.465-.4-.465s-.4.185-.4.465v1.162a.37.37,0,1,1-.739,0V96.6a.358.358,0,0,1,.37-.391.348.348,0,0,1,.354.269h0a.823.823,0,0,1,.677-.3.784.784,0,0,1,.691.334h.006a1.016,1.016,0,0,1,.8-.334.856.856,0,0,1,.909.952v1.3a.371.371,0,1,1-.74,0" transform="translate(-15.742 -17.945)" fill="#005ca9"/>
      <path id="Tracé_29" data-name="Tracé 29" d="M90,98.125a1.857,1.857,0,0,1-.085-.608,1.916,1.916,0,0,1,.079-.613,1.076,1.076,0,0,1,1.1-.724,1.062,1.062,0,0,1,1.1.718,1.84,1.84,0,0,1,.085.6.227.227,0,0,1-.242.243H90.684a.028.028,0,0,0-.032.032.446.446,0,0,0,.027.148.5.5,0,0,0,.528.333,1.031,1.031,0,0,0,.481-.132.522.522,0,0,1,.254-.08.265.265,0,0,1,.269.275.308.308,0,0,1-.147.264,1.538,1.538,0,0,1-.925.275A1.091,1.091,0,0,1,90,98.125m1.527-.877a.028.028,0,0,0,.032-.032.623.623,0,0,0-.026-.19.417.417,0,0,0-.429-.28.409.409,0,0,0-.422.28.6.6,0,0,0-.027.19.028.028,0,0,0,.032.032Z" transform="translate(-16.775 -17.945)" fill="#005ca9"/>
      <path id="Tracé_30" data-name="Tracé 30" d="M95.243,98.437V97.275c0-.28-.137-.465-.4-.465s-.4.185-.4.465v1.162a.37.37,0,1,1-.739,0V96.6a.358.358,0,0,1,.37-.391.348.348,0,0,1,.354.269h0a.822.822,0,0,1,.676-.3.85.85,0,0,1,.873.952v1.3a.371.371,0,1,1-.74,0" transform="translate(-17.483 -17.945)" fill="#005ca9"/>
      <path id="Tracé_31" data-name="Tracé 31" d="M98.314,98.657c-.6,0-.819-.275-.819-.856V96.649c0-.021-.015-.032-.037-.032h-.021a.276.276,0,1,1,0-.55h.021c.021,0,.037-.01.037-.031v-.381a.368.368,0,1,1,.735,0v.381c0,.021.011.031.032.031h.2a.276.276,0,1,1,0,.55h-.2a.028.028,0,0,0-.032.032V97.78c0,.153.058.216.2.232a.324.324,0,0,1,.327.328c0,.18-.127.317-.407.317Z" transform="translate(-18.124 -17.774)" fill="#005ca9"/>
      <path id="Tracé_32" data-name="Tracé 32" d="M32.759,37.232c0-3.374-4.488-2.922-4.488-4.5,0-.6.467-1.024,1.2-1.024a3.079,3.079,0,0,1,1.99.709.186.186,0,0,0,.28-.039l.75-1.214a.185.185,0,0,0-.035-.238,4.461,4.461,0,0,0-2.94-1.01,3.018,3.018,0,0,0-3.313,2.937c0,3.4,4.5,2.771,4.5,4.549,0,.617-.467,1.114-1.386,1.114a3.3,3.3,0,0,1-2.285-.922.183.183,0,0,0-.281.038l-.774,1.237a.187.187,0,0,0,.028.233,4.626,4.626,0,0,0,3.327,1.2c2.229,0,3.419-1.325,3.419-3.072" transform="translate(-4.843 -5.581)" fill="#e22f24"/>
      <path id="Tracé_33" data-name="Tracé 33" d="M41.517,40.305c2.636,0,4.216-2.2,4.216-5.2s-1.58-5.2-4.216-5.2c-2.652,0-4.218,2.2-4.218,5.2s1.566,5.2,4.218,5.2m0-8.6c1.37,0,2.138,1.461,2.138,3.4,0,1.928-.768,3.4-2.138,3.4-1.4,0-2.155-1.476-2.155-3.4,0-1.943.754-3.4,2.155-3.4" transform="translate(-6.959 -5.581)" fill="#e22f24"/>
      <path id="Tracé_34" data-name="Tracé 34" d="M55,40.3a3.509,3.509,0,0,0,3.293-2.345.2.2,0,0,0-.1-.265l-1.293-.56a.2.2,0,0,0-.268.112A1.814,1.814,0,0,1,55,38.512c-1.385,0-2.214-1.43-2.214-3.4s.829-3.4,2.214-3.4a1.781,1.781,0,0,1,1.608,1.166.2.2,0,0,0,.266.107l1.3-.573a.2.2,0,0,0,.1-.268A3.484,3.484,0,0,0,55,29.912c-2.636,0-4.278,2.139-4.278,5.2,0,3.042,1.642,5.2,4.278,5.2" transform="translate(-9.463 -5.581)" fill="#e22f24"/>
      <path id="Tracé_35" data-name="Tracé 35" d="M77.2,39.955,74.312,30.28a.23.23,0,0,0-.22-.164H72.008a.23.23,0,0,0-.22.164L68.9,39.915a.192.192,0,0,0,.184.246h1.751a.232.232,0,0,0,.222-.169l.39-1.439a.23.23,0,0,1,.222-.169h2.765a.229.229,0,0,1,.222.171l.377,1.435a.23.23,0,0,0,.222.172h1.791a.161.161,0,0,0,.155-.207m-3.14-3.348H72a.089.089,0,0,1-.086-.112l1.022-3.852a.112.112,0,0,1,.216,0l1.025,3.813a.121.121,0,0,1-.117.153" transform="translate(-12.853 -5.619)" fill="#e22f24"/>
      <path id="Tracé_36" data-name="Tracé 36" d="M87.456,39.955V38.592a.207.207,0,0,0-.207-.207H84.274a.206.206,0,0,1-.207-.207V30.323a.207.207,0,0,0-.207-.207h-1.6a.207.207,0,0,0-.207.207v9.632a.207.207,0,0,0,.207.207h4.994a.207.207,0,0,0,.207-.207" transform="translate(-15.308 -5.619)" fill="#e22f24"/>
      <path id="Tracé_37" data-name="Tracé 37" d="M97.889,39.932V38.614a.229.229,0,0,0-.229-.229H94.233a.094.094,0,0,1-.094-.094V36.036a.107.107,0,0,1,.107-.107h3.309a.229.229,0,0,0,.229-.229V34.4a.229.229,0,0,0-.229-.229H94.219a.08.08,0,0,1-.081-.081V31.994a.1.1,0,0,1,.1-.1h3.419a.229.229,0,0,0,.229-.229V30.344a.229.229,0,0,0-.229-.229h-5.31a.23.23,0,0,0-.229.229v9.588a.23.23,0,0,0,.229.229h5.31a.229.229,0,0,0,.229-.229" transform="translate(-17.187 -5.619)" fill="#e22f24"/>
      <path id="Rectangle_1" data-name="Rectangle 1" d="M.267,0H1.751a.268.268,0,0,1,.268.268V6.385a.267.267,0,0,1-.267.267H.267A.267.267,0,0,1,0,6.385V.267A.267.267,0,0,1,.267,0Z" transform="translate(51.629 27.878)" fill="#e22f24"/>
      <path id="Tracé_38" data-name="Tracé 38" d="M64.433,32.359a1.218,1.218,0,1,0-1.218-1.218,1.217,1.217,0,0,0,1.218,1.218" transform="translate(-11.794 -5.583)" fill="#005ca9"/>
      <path id="Tracé_39" data-name="Tracé 39" d="M26.5,20.654h5.129a.167.167,0,0,0,.168-.168V19.025a.167.167,0,0,0-.168-.167H28.535a.168.168,0,0,1-.168-.168V10.667A.169.169,0,0,0,28.2,10.5H26.5a.169.169,0,0,0-.168.168v9.819a.168.168,0,0,0,.168.168" transform="translate(-4.912 -1.959)" fill="#e22f24"/>
      <path id="Tracé_40" data-name="Tracé 40" d="M47.039,20.837a3.433,3.433,0,0,0,3.76-3.7V10.711a.211.211,0,0,0-.211-.211H48.955a.211.211,0,0,0-.211.211v6.442c0,1.218-.624,1.888-1.7,1.888s-1.689-.67-1.689-1.888V10.711a.211.211,0,0,0-.211-.211H43.5a.211.211,0,0,0-.211.211v6.427a3.428,3.428,0,0,0,3.745,3.7" transform="translate(-8.077 -1.959)" fill="#e22f24"/>
      <path id="Tracé_41" data-name="Tracé 41" d="M56.824,20.654h1.593a.223.223,0,0,0,.223-.224V14.841a.1.1,0,0,1,.188-.049l3.234,5.748a.225.225,0,0,0,.2.114h1.594a.224.224,0,0,0,.224-.224V10.723a.224.224,0,0,0-.224-.224H62.258a.225.225,0,0,0-.225.224v5.333a.108.108,0,0,1-.2.053l-3.1-5.5a.223.223,0,0,0-.194-.114H56.824a.225.225,0,0,0-.225.224V20.43a.224.224,0,0,0,.225.224" transform="translate(-10.56 -1.959)" fill="#e22f24"/>
      <path id="Tracé_42" data-name="Tracé 42" d="M80.231,20.8c2.665,0,4.262-2.223,4.262-5.252s-1.6-5.252-4.262-5.252-4.262,2.222-4.262,5.252S77.552,20.8,80.231,20.8m0-8.693c1.385,0,2.162,1.476,2.162,3.441,0,1.949-.777,3.44-2.162,3.44-1.415,0-2.177-1.491-2.177-3.44,0-1.964.761-3.441,2.177-3.441" transform="translate(-14.174 -1.921)" fill="#e22f24"/>
      <rect id="Rectangle_2" data-name="Rectangle 2" width="2.04" height="6.724" rx="0.27" transform="translate(56.947 11.982)" fill="#e22f24"/>
      <path id="Tracé_43" data-name="Tracé 43" d="M70.981,12.8a1.231,1.231,0,1,0-1.232-1.232A1.231,1.231,0,0,0,70.981,12.8" transform="translate(-13.013 -1.928)" fill="#005ca9"/>
      <path id="Tracé_44" data-name="Tracé 44" d="M90.247,20.654H91.84a.223.223,0,0,0,.223-.224V14.841a.1.1,0,0,1,.188-.049l3.234,5.748a.226.226,0,0,0,.2.114h1.594a.224.224,0,0,0,.224-.224V10.723a.224.224,0,0,0-.224-.224H95.681a.225.225,0,0,0-.224.224v5.333a.108.108,0,0,1-.2.053l-3.1-5.5a.224.224,0,0,0-.194-.114H90.247a.225.225,0,0,0-.224.224V20.43a.224.224,0,0,0,.224.224" transform="translate(-16.796 -1.959)" fill="#e22f24"/>
      <path id="Tracé_45" data-name="Tracé 45" d="M35.738,12.8a1.231,1.231,0,1,0-1.232-1.232A1.231,1.231,0,0,0,35.738,12.8" transform="translate(-6.438 -1.928)" fill="#005ca9"/>
      <path id="Tracé_46" data-name="Tracé 46" d="M33.574,69.1h-1.6a.22.22,0,0,0-.22.22v3.73a.085.085,0,0,1-.085.085H28.457a.113.113,0,0,1-.113-.113v-3.7a.22.22,0,0,0-.22-.22h-1.6a.22.22,0,0,0-.22.22v9.716a.219.219,0,0,0,.22.219h1.6a.219.219,0,0,0,.22-.219V75.053a.122.122,0,0,1,.122-.122h3.22a.067.067,0,0,1,.068.068v4.037a.219.219,0,0,0,.22.219h1.6a.219.219,0,0,0,.22-.219V69.32a.22.22,0,0,0-.22-.22" transform="translate(-4.908 -12.892)" fill="#e22f24"/>
      <path id="Tracé_47" data-name="Tracé 47" d="M57.153,74.017a2.243,2.243,0,0,0,1.644-2.33A2.472,2.472,0,0,0,56.1,69.1H52.061a.176.176,0,0,0-.176.176v9.8a.176.176,0,0,0,.176.175h4.179A2.525,2.525,0,0,0,58.964,76.5a2.4,2.4,0,0,0-1.812-2.481m-3.228-2.945A.176.176,0,0,1,54.1,70.9h1.514a1.151,1.151,0,0,1,0,2.3H54.1a.176.176,0,0,1-.176-.176Zm1.766,6.386H54.1a.175.175,0,0,1-.176-.176v-2.13a.176.176,0,0,1,.176-.176h1.59a1.143,1.143,0,0,1,1.188,1.249,1.1,1.1,0,0,1-1.188,1.233" transform="translate(-9.68 -12.892)" fill="#e22f24"/>
      <path id="Tracé_48" data-name="Tracé 48" d="M76.4,69.1H70.118a.147.147,0,0,0-.147.146v1.5a.147.147,0,0,0,.147.146h1.974a.147.147,0,0,1,.147.147v8.064a.146.146,0,0,0,.146.146h1.746a.147.147,0,0,0,.147-.146V71.043a.146.146,0,0,1,.146-.147H76.4a.146.146,0,0,0,.146-.146v-1.5A.147.147,0,0,0,76.4,69.1" transform="translate(-13.055 -12.892)" fill="#e22f24"/>
      <path id="Tracé_49" data-name="Tracé 49" d="M15.625,77.458H12.618a.209.209,0,0,1-.209-.209v-7.94A.209.209,0,0,0,12.2,69.1H10.578a.21.21,0,0,0-.209.209v9.736a.21.21,0,0,0,.209.21h5.047a.21.21,0,0,0,.209-.21V77.667a.209.209,0,0,0-.209-.209" transform="translate(-1.935 -12.892)" fill="#e22f24"/>
      <path id="Tracé_50" data-name="Tracé 50" d="M97.557,69.1H91.274a.147.147,0,0,0-.147.146v1.5a.147.147,0,0,0,.147.146h1.974a.147.147,0,0,1,.147.147v8.064a.146.146,0,0,0,.146.146h1.746a.147.147,0,0,0,.147-.146V71.043a.146.146,0,0,1,.146-.147h1.975a.146.146,0,0,0,.146-.146v-1.5a.146.146,0,0,0-.146-.146" transform="translate(-17.002 -12.892)" fill="#e22f24"/>
      <path id="Tracé_51" data-name="Tracé 51" d="M44.093,69.266a.233.233,0,0,0-.223-.166H41.765a.234.234,0,0,0-.223.166l-2.92,9.739a.194.194,0,0,0,.185.25h1.77a.232.232,0,0,0,.224-.172L41.2,77.63a.232.232,0,0,1,.224-.172h2.8a.232.232,0,0,1,.224.173l.381,1.45a.232.232,0,0,0,.225.173h1.811a.163.163,0,0,0,.156-.209Zm-.255,6.4H41.755a.09.09,0,0,1-.087-.113L42.7,71.654a.112.112,0,0,1,.217,0l1.036,3.853a.122.122,0,0,1-.118.155" transform="translate(-7.204 -12.892)" fill="#e22f24"/>
      <path id="Tracé_52" data-name="Tracé 52" d="M84.846,69.266a.232.232,0,0,0-.222-.166H82.518a.232.232,0,0,0-.222.166l-2.92,9.739a.194.194,0,0,0,.185.25h1.77a.233.233,0,0,0,.224-.172l.395-1.454a.231.231,0,0,1,.224-.172h2.795a.232.232,0,0,1,.225.173l.381,1.45a.232.232,0,0,0,.225.173h1.811a.163.163,0,0,0,.155-.209Zm-.255,6.4H82.509a.09.09,0,0,1-.087-.113l1.034-3.895a.113.113,0,0,1,.218,0l1.036,3.853a.123.123,0,0,1-.119.155" transform="translate(-14.808 -12.892)" fill="#e22f24"/>
      <path id="Rectangle_3" data-name="Rectangle 3" d="M.27,0h1.5a.27.27,0,0,1,.27.27V6.455a.269.269,0,0,1-.269.269H.27A.27.27,0,0,1,0,6.454V.27A.27.27,0,0,1,.27,0Z" transform="translate(52.039 59.658)" fill="#e22f24"/>
      <path id="Tracé_53" data-name="Tracé 53" d="M64.947,71.473a1.231,1.231,0,1,0-1.232-1.232,1.231,1.231,0,0,0,1.232,1.232" transform="translate(-11.887 -12.876)" fill="#005ca9"/>
      <path id="Tracé_54" data-name="Tracé 54" d="M18.657,71.473a1.231,1.231,0,1,0-1.232-1.232,1.232,1.232,0,0,0,1.232,1.232" transform="translate(-3.251 -12.876)" fill="#005ca9"/>
      <path id="Tracé_55" data-name="Tracé 55" d="M80.31,81.03H2.892V61.174l15.5-10.129,13.559,8.3a.9.9,0,0,0,.469.133h4.307a.1.1,0,0,0,.056-.193L19.155,48.1a1.448,1.448,0,0,0-1.566.011L.327,59.431A.724.724,0,0,0,0,60.037V83.389a.533.533,0,0,0,.533.533H80.31a.324.324,0,0,0,.324-.324V81.353a.324.324,0,0,0-.324-.324" transform="translate(0 -8.933)" fill="#005ca9"/>
      <path id="Tracé_56" data-name="Tracé 56" d="M60.624,0H11.33a.816.816,0,0,0-.815.816V36.057a.126.126,0,0,0,.19.109l2.527-1.5a.354.354,0,0,0,.174-.305V2.892H60.624a.324.324,0,0,0,.324-.324V.324A.324.324,0,0,0,60.624,0" transform="translate(-1.962 0)" fill="#e22f24"/>
    </g>
  </g>
</svg>
